<?xml version="1.0" encoding="UTF-8" standalone="yes"?><svg xmlns="http://www.w3.org/2000/svg" xmlns:xlink="http://www.w3.org/1999/xlink" height="660px" style="width:656px;height:660px;" version="1.1" viewBox="0 0 656 660" width="656px"><defs><filter height="300%" id="f1" width="300%" x="-1" y="-1"><feGaussianBlur result="blurOut" stdDeviation="2.0"/><feColorMatrix in="blurOut" result="blurOut2" type="matrix" values="0 0 0 0 0 0 0 0 0 0 0 0 0 0 0 0 0 0 .4 0"/><feOffset dx="4.0" dy="4.0" in="blurOut2" result="blurOut3"/><feBlend in="SourceGraphic" in2="blurOut3" mode="normal"/></filter></defs><g><rect fill="#FEFECE" filter="url(#f1)" height="259.5391" style="stroke: #A80036; stroke-width: 1.5;" width="86" x="6" y="8"/><ellipse cx="21" cy="24" fill="#EB937F" rx="11" ry="11" style="stroke: #A80036; stroke-width: 1.0;"/><path d="M19.5313,22.8594 L24.0469,22.8594 L24.0469,24.125 L19.5313,24.125 L19.5313,29.1094 L24.7656,29.1094 L24.7656,30.3594 L17,30.3594 L17,17.4219 L24.4375,17.4219 L24.4375,18.6719 L19.5313,18.6719 L19.5313,22.8594 Z "/><text fill="#000000" font-family="sans-serif" font-size="12" lengthAdjust="spacingAndGlyphs" textLength="54" x="35" y="28.9102">ObjctType</text><line style="stroke: #A80036; stroke-width: 1.5;" x1="7" x2="91" y1="40" y2="40"/><text fill="#000000" font-family="sans-serif" font-size="11" lengthAdjust="spacingAndGlyphs" textLength="28" x="12" y="73.2549">CONE</text><text fill="#000000" font-family="sans-serif" font-size="11" lengthAdjust="spacingAndGlyphs" textLength="38" x="12" y="87.0908">CUBOID</text><text fill="#000000" font-family="sans-serif" font-size="11" lengthAdjust="spacingAndGlyphs" textLength="50" x="12" y="100.9268">CYLINDER</text><text fill="#000000" font-family="sans-serif" font-size="11" lengthAdjust="spacingAndGlyphs" textLength="39" x="12" y="114.7627">SPHERE</text><line style="stroke: #A80036; stroke-width: 1.0;" x1="7" x2="18.5" y1="54.918" y2="54.918"/><text fill="#000000" font-family="sans-serif" font-size="11" lengthAdjust="spacingAndGlyphs" textLength="61" x="18.5" y="58.9189">3D Primitives</text><line style="stroke: #A80036; stroke-width: 1.0;" x1="79.5" x2="91" y1="54.918" y2="54.918"/><text fill="#000000" font-family="sans-serif" font-size="11" lengthAdjust="spacingAndGlyphs" textLength="35" x="12" y="146.4346">CIRCLE</text><text fill="#000000" font-family="sans-serif" font-size="11" lengthAdjust="spacingAndGlyphs" textLength="39" x="12" y="160.2705">ELLIPSE</text><text fill="#000000" font-family="sans-serif" font-size="11" lengthAdjust="spacingAndGlyphs" textLength="21" x="12" y="174.1064">LINE</text><text fill="#000000" font-family="sans-serif" font-size="11" lengthAdjust="spacingAndGlyphs" textLength="49" x="12" y="187.9424">POLYLINE</text><text fill="#000000" font-family="sans-serif" font-size="11" lengthAdjust="spacingAndGlyphs" textLength="51" x="12" y="201.7783">POLYGON</text><text fill="#000000" font-family="sans-serif" font-size="11" lengthAdjust="spacingAndGlyphs" textLength="61" x="12" y="215.6143">RECTANGLE</text><line style="stroke: #A80036; stroke-width: 1.0;" x1="7" x2="18.5" y1="128.0977" y2="128.0977"/><text fill="#000000" font-family="sans-serif" font-size="11" lengthAdjust="spacingAndGlyphs" textLength="61" x="18.5" y="132.0986">2D Primitives</text><line style="stroke: #A80036; stroke-width: 1.0;" x1="79.5" x2="91" y1="128.0977" y2="128.0977"/><text fill="#000000" font-family="sans-serif" font-size="11" lengthAdjust="spacingAndGlyphs" textLength="63" x="12" y="247.2861">CHARACTER</text><text fill="#000000" font-family="sans-serif" font-size="11" lengthAdjust="spacingAndGlyphs" textLength="25" x="12" y="261.1221">TEXT</text><line style="stroke: #A80036; stroke-width: 1.0;" x1="7" x2="32.5" y1="228.9492" y2="228.9492"/><text fill="#000000" font-family="sans-serif" font-size="11" lengthAdjust="spacingAndGlyphs" textLength="33" x="32.5" y="232.9502">Others</text><line style="stroke: #A80036; stroke-width: 1.0;" x1="65.5" x2="91" y1="228.9492" y2="228.9492"/><rect fill="#FEFECE" filter="url(#f1)" height="97.6953" style="stroke: #A80036; stroke-width: 1.5;" width="78" x="127" y="89"/><ellipse cx="145.15" cy="109.0938" fill="#ADD1B2" rx="11" ry="11" style="stroke: #A80036; stroke-width: 1.0;"/><path d="M147.8531,114.5313 Q146.9313,115.4531 144.6656,115.4531 Q143.4,115.4531 142.4781,114.5313 Q140.8219,112.875 140.8219,109.3438 Q140.8219,105.2344 142.6031,103.4375 Q143.5406,102.5156 144.7281,102.5156 Q146.9938,102.5156 147.7281,103.2344 Q149.1188,104.6406 149.0563,107.0313 L146.5875,107.0313 Q146.525,104.9063 145.7906,104.1719 Q145.4,103.7656 144.7281,103.7656 Q144.7281,103.7656 144.6656,104.2344 Q143.3375,105.5625 143.3375,109.2188 Q143.3375,112.4063 144.4781,113.5313 Q145.0094,114.0625 145.0094,114.0625 Q145.2594,114.0625 145.7906,113.5313 Q146.4625,112.875 146.525,110.4844 L149.1188,110.4844 Q148.9156,113.4688 147.8531,114.5313 Z "/><text fill="#000000" font-family="sans-serif" font-size="12" font-style="italic" lengthAdjust="spacingAndGlyphs" textLength="43" x="157.85" y="106.457">«struct»</text><text fill="#000000" font-family="sans-serif" font-size="12" lengthAdjust="spacingAndGlyphs" textLength="34" x="162.35" y="121.5508">Vector</text><line style="stroke: #A80036; stroke-width: 1.5;" x1="128" x2="204" y1="129.1875" y2="129.1875"/><ellipse cx="138" cy="141.6055" fill="none" rx="3" ry="3" style="stroke: #038048; stroke-width: 1.0;"/><text fill="#000000" font-family="sans-serif" font-size="11" lengthAdjust="spacingAndGlyphs" textLength="52" x="147" y="144.6064">x : Number</text><ellipse cx="138" cy="155.4414" fill="none" rx="3" ry="3" style="stroke: #038048; stroke-width: 1.0;"/><text fill="#000000" font-family="sans-serif" font-size="11" lengthAdjust="spacingAndGlyphs" textLength="52" x="147" y="158.4424">y : Number</text><ellipse cx="138" cy="169.2773" fill="none" rx="3" ry="3" style="stroke: #038048; stroke-width: 1.0;"/><text fill="#000000" font-family="sans-serif" font-size="11" lengthAdjust="spacingAndGlyphs" textLength="52" x="147" y="172.2783">z : Number</text><line style="stroke: #A80036; stroke-width: 1.5;" x1="128" x2="204" y1="178.6953" y2="178.6953"/><rect fill="#FEFECE" filter="url(#f1)" height="75.6719" style="stroke: #A80036; stroke-width: 1.5;" width="108" x="240" y="100"/><ellipse cx="274.8" cy="116" fill="#ADD1B2" rx="11" ry="11" style="stroke: #A80036; stroke-width: 1.0;"/><path d="M277.5031,121.4375 Q276.5813,122.3594 274.3156,122.3594 Q273.05,122.3594 272.1281,121.4375 Q270.4719,119.7813 270.4719,116.25 Q270.4719,112.1406 272.2531,110.3438 Q273.1906,109.4219 274.3781,109.4219 Q276.6438,109.4219 277.3781,110.1406 Q278.7688,111.5469 278.7063,113.9375 L276.2375,113.9375 Q276.175,111.8125 275.4406,111.0781 Q275.05,110.6719 274.3781,110.6719 Q274.3781,110.6719 274.3156,111.1406 Q272.9875,112.4688 272.9875,116.125 Q272.9875,119.3125 274.1281,120.4375 Q274.6594,120.9688 274.6594,120.9688 Q274.9094,120.9688 275.4406,120.4375 Q276.1125,119.7813 276.175,117.3906 L278.7688,117.3906 Q278.5656,120.375 277.5031,121.4375 Z "/><text fill="#000000" font-family="sans-serif" font-size="12" lengthAdjust="spacingAndGlyphs" textLength="32" x="293.2" y="120.9102">Client</text><line style="stroke: #A80036; stroke-width: 1.5;" x1="241" x2="347" y1="132" y2="132"/><ellipse cx="251" cy="144.418" fill="none" rx="3" ry="3" style="stroke: #038048; stroke-width: 1.0;"/><text fill="#000000" font-family="sans-serif" font-size="11" lengthAdjust="spacingAndGlyphs" textLength="60" x="260" y="147.4189">room : Room</text><ellipse cx="251" cy="158.2539" fill="none" rx="3" ry="3" style="stroke: #038048; stroke-width: 1.0;"/><text fill="#000000" font-family="sans-serif" font-size="11" lengthAdjust="spacingAndGlyphs" textLength="82" x="260" y="161.2549">camera : Camera</text><line style="stroke: #A80036; stroke-width: 1.5;" x1="241" x2="347" y1="167.6719" y2="167.6719"/><rect fill="#FEFECE" filter="url(#f1)" height="75.6719" style="stroke: #A80036; stroke-width: 1.5;" width="149" x="31.5" y="342.5"/><ellipse cx="79.25" cy="358.5" fill="#ADD1B2" rx="11" ry="11" style="stroke: #A80036; stroke-width: 1.0;"/><path d="M81.9531,363.9375 Q81.0313,364.8594 78.7656,364.8594 Q77.5,364.8594 76.5781,363.9375 Q74.9219,362.2813 74.9219,358.75 Q74.9219,354.6406 76.7031,352.8438 Q77.6406,351.9219 78.8281,351.9219 Q81.0938,351.9219 81.8281,352.6406 Q83.2188,354.0469 83.1563,356.4375 L80.6875,356.4375 Q80.625,354.3125 79.8906,353.5781 Q79.5,353.1719 78.8281,353.1719 Q78.8281,353.1719 78.7656,353.6406 Q77.4375,354.9688 77.4375,358.625 Q77.4375,361.8125 78.5781,362.9375 Q79.1094,363.4688 79.1094,363.4688 Q79.3594,363.4688 79.8906,362.9375 Q80.5625,362.2813 80.625,359.8906 L83.2188,359.8906 Q83.0156,362.875 81.9531,363.9375 Z "/><text fill="#000000" font-family="sans-serif" font-size="12" lengthAdjust="spacingAndGlyphs" textLength="45" x="99.75" y="363.4102">Camera</text><line style="stroke: #A80036; stroke-width: 1.5;" x1="32.5" x2="179.5" y1="374.5" y2="374.5"/><line style="stroke: #A80036; stroke-width: 1.5;" x1="32.5" x2="179.5" y1="382.5" y2="382.5"/><ellipse cx="42.5" cy="394.918" fill="#84BE84" rx="3" ry="3" style="stroke: #038048; stroke-width: 1.0;"/><text fill="#000000" font-family="sans-serif" font-size="11" lengthAdjust="spacingAndGlyphs" textLength="109" x="51.5" y="397.9189">rotate(vector : Vector)</text><ellipse cx="42.5" cy="408.7539" fill="#84BE84" rx="3" ry="3" style="stroke: #038048; stroke-width: 1.0;"/><text fill="#000000" font-family="sans-serif" font-size="11" lengthAdjust="spacingAndGlyphs" textLength="123" x="51.5" y="411.7549">translate(vector : Vector)</text><rect fill="#FEFECE" filter="url(#f1)" height="103.3438" style="stroke: #A80036; stroke-width: 1.5;" width="132" x="315" y="329"/><ellipse cx="359.75" cy="345" fill="#ADD1B2" rx="11" ry="11" style="stroke: #A80036; stroke-width: 1.0;"/><path d="M362.4531,350.4375 Q361.5313,351.3594 359.2656,351.3594 Q358,351.3594 357.0781,350.4375 Q355.4219,348.7813 355.4219,345.25 Q355.4219,341.1406 357.2031,339.3438 Q358.1406,338.4219 359.3281,338.4219 Q361.5938,338.4219 362.3281,339.1406 Q363.7188,340.5469 363.6563,342.9375 L361.1875,342.9375 Q361.125,340.8125 360.3906,340.0781 Q360,339.6719 359.3281,339.6719 Q359.3281,339.6719 359.2656,340.1406 Q357.9375,341.4688 357.9375,345.125 Q357.9375,348.3125 359.0781,349.4375 Q359.6094,349.9688 359.6094,349.9688 Q359.8594,349.9688 360.3906,349.4375 Q361.0625,348.7813 361.125,346.3906 L363.7188,346.3906 Q363.5156,349.375 362.4531,350.4375 Z "/><text fill="#000000" font-family="sans-serif" font-size="12" lengthAdjust="spacingAndGlyphs" textLength="34" x="380.25" y="349.9102">Room</text><line style="stroke: #A80036; stroke-width: 1.5;" x1="316" x2="446" y1="361" y2="361"/><ellipse cx="326" cy="373.418" fill="none" rx="3" ry="3" style="stroke: #038048; stroke-width: 1.0;"/><text fill="#000000" font-family="sans-serif" font-size="11" lengthAdjust="spacingAndGlyphs" textLength="62" x="335" y="376.4189">size : Vector</text><ellipse cx="326" cy="387.2539" fill="none" rx="3" ry="3" style="stroke: #038048; stroke-width: 1.0;"/><text fill="#000000" font-family="sans-serif" font-size="11" lengthAdjust="spacingAndGlyphs" textLength="79" x="335" y="390.2549">ground : Ground</text><ellipse cx="326" cy="401.0898" fill="none" rx="3" ry="3" style="stroke: #038048; stroke-width: 1.0;"/><text fill="#000000" font-family="sans-serif" font-size="11" lengthAdjust="spacingAndGlyphs" textLength="81" x="335" y="404.0908">objects : Object[]</text><line style="stroke: #A80036; stroke-width: 1.5;" x1="316" x2="446" y1="410.5078" y2="410.5078"/><ellipse cx="326" cy="422.9258" fill="#84BE84" rx="3" ry="3" style="stroke: #038048; stroke-width: 1.0;"/><text fill="#000000" font-family="sans-serif" font-size="11" lengthAdjust="spacingAndGlyphs" textLength="106" x="335" y="425.9268">setSize(size : Vector)</text><rect fill="#FEFECE" filter="url(#f1)" height="89.5078" style="stroke: #A80036; stroke-width: 1.5;" width="264" x="115" y="527.5"/><ellipse cx="222.25" cy="543.5" fill="#ADD1B2" rx="11" ry="11" style="stroke: #A80036; stroke-width: 1.0;"/><path d="M224.9531,548.9375 Q224.0313,549.8594 221.7656,549.8594 Q220.5,549.8594 219.5781,548.9375 Q217.9219,547.2813 217.9219,543.75 Q217.9219,539.6406 219.7031,537.8438 Q220.6406,536.9219 221.8281,536.9219 Q224.0938,536.9219 224.8281,537.6406 Q226.2188,539.0469 226.1563,541.4375 L223.6875,541.4375 Q223.625,539.3125 222.8906,538.5781 Q222.5,538.1719 221.8281,538.1719 Q221.8281,538.1719 221.7656,538.6406 Q220.4375,539.9688 220.4375,543.625 Q220.4375,546.8125 221.5781,547.9375 Q222.1094,548.4688 222.1094,548.4688 Q222.3594,548.4688 222.8906,547.9375 Q223.5625,547.2813 223.625,544.8906 L226.2188,544.8906 Q226.0156,547.875 224.9531,548.9375 Z "/><text fill="#000000" font-family="sans-serif" font-size="12" lengthAdjust="spacingAndGlyphs" textLength="41" x="242.75" y="548.4102">Ground</text><line style="stroke: #A80036; stroke-width: 1.5;" x1="116" x2="378" y1="559.5" y2="559.5"/><ellipse cx="126" cy="571.918" fill="none" rx="3" ry="3" style="stroke: #038048; stroke-width: 1.0;"/><text fill="#000000" font-family="sans-serif" font-size="11" lengthAdjust="spacingAndGlyphs" textLength="93" x="135" y="574.9189">heights : Number[][]</text><line style="stroke: #A80036; stroke-width: 1.5;" x1="116" x2="378" y1="581.3359" y2="581.3359"/><ellipse cx="126" cy="593.7539" fill="#84BE84" rx="3" ry="3" style="stroke: #038048; stroke-width: 1.0;"/><text fill="#000000" font-family="sans-serif" font-size="11" lengthAdjust="spacingAndGlyphs" textLength="238" x="135" y="596.7549">setHeight(x : Number, z : Number, hight : Number)</text><ellipse cx="126" cy="607.5898" fill="#84BE84" rx="3" ry="3" style="stroke: #038048; stroke-width: 1.0;"/><text fill="#000000" font-family="sans-serif" font-size="11" lengthAdjust="spacingAndGlyphs" textLength="34" x="135" y="610.5908">draw()</text><rect fill="#FEFECE" filter="url(#f1)" height="158.6875" style="stroke: #A80036; stroke-width: 1.5;" width="233" x="414.5" y="493"/><ellipse cx="509.25" cy="509" fill="#ADD1B2" rx="11" ry="11" style="stroke: #A80036; stroke-width: 1.0;"/><path d="M511.9531,514.4375 Q511.0313,515.3594 508.7656,515.3594 Q507.5,515.3594 506.5781,514.4375 Q504.9219,512.7813 504.9219,509.25 Q504.9219,505.1406 506.7031,503.3438 Q507.6406,502.4219 508.8281,502.4219 Q511.0938,502.4219 511.8281,503.1406 Q513.2188,504.5469 513.1563,506.9375 L510.6875,506.9375 Q510.625,504.8125 509.8906,504.0781 Q509.5,503.6719 508.8281,503.6719 Q508.8281,503.6719 508.7656,504.1406 Q507.4375,505.4688 507.4375,509.125 Q507.4375,512.3125 508.5781,513.4375 Q509.1094,513.9688 509.1094,513.9688 Q509.3594,513.9688 509.8906,513.4375 Q510.5625,512.7813 510.625,510.3906 L513.2188,510.3906 Q513.0156,513.375 511.9531,514.4375 Z "/><text fill="#000000" font-family="sans-serif" font-size="12" lengthAdjust="spacingAndGlyphs" textLength="35" x="529.75" y="513.9102">Object</text><line style="stroke: #A80036; stroke-width: 1.5;" x1="415.5" x2="646.5" y1="525" y2="525"/><ellipse cx="425.5" cy="537.418" fill="none" rx="3" ry="3" style="stroke: #038048; stroke-width: 1.0;"/><text fill="#000000" font-family="sans-serif" font-size="11" lengthAdjust="spacingAndGlyphs" textLength="85" x="434.5" y="540.4189">type : ObjectType</text><ellipse cx="425.5" cy="551.2539" fill="none" rx="3" ry="3" style="stroke: #038048; stroke-width: 1.0;"/><text fill="#000000" font-family="sans-serif" font-size="11" lengthAdjust="spacingAndGlyphs" textLength="79" x="434.5" y="554.2549">position : Vector</text><ellipse cx="425.5" cy="565.0898" fill="none" rx="3" ry="3" style="stroke: #038048; stroke-width: 1.0;"/><text fill="#000000" font-family="sans-serif" font-size="11" lengthAdjust="spacingAndGlyphs" textLength="62" x="434.5" y="568.0908">size : Vector</text><line style="stroke: #A80036; stroke-width: 1.5;" x1="415.5" x2="646.5" y1="574.5078" y2="574.5078"/><ellipse cx="425.5" cy="586.9258" fill="#84BE84" rx="3" ry="3" style="stroke: #038048; stroke-width: 1.0;"/><text fill="#000000" font-family="sans-serif" font-size="11" lengthAdjust="spacingAndGlyphs" textLength="207" x="434.5" y="589.9268">constructor(type : Type, position : Position)</text><ellipse cx="425.5" cy="600.7617" fill="#84BE84" rx="3" ry="3" style="stroke: #038048; stroke-width: 1.0;"/><text fill="#000000" font-family="sans-serif" font-size="11" lengthAdjust="spacingAndGlyphs" textLength="123" x="434.5" y="603.7627">setAngle(angle : Number)</text><ellipse cx="425.5" cy="614.5977" fill="#84BE84" rx="3" ry="3" style="stroke: #038048; stroke-width: 1.0;"/><text fill="#000000" font-family="sans-serif" font-size="11" lengthAdjust="spacingAndGlyphs" textLength="139" x="434.5" y="617.5986">setPosition(position : Vector)</text><ellipse cx="425.5" cy="628.4336" fill="#84BE84" rx="3" ry="3" style="stroke: #038048; stroke-width: 1.0;"/><text fill="#000000" font-family="sans-serif" font-size="11" lengthAdjust="spacingAndGlyphs" textLength="106" x="434.5" y="631.4346">setSize(size : Vector)</text><ellipse cx="425.5" cy="642.2695" fill="#84BE84" rx="3" ry="3" style="stroke: #038048; stroke-width: 1.0;"/><text fill="#000000" font-family="sans-serif" font-size="11" lengthAdjust="spacingAndGlyphs" textLength="34" x="434.5" y="645.2705">draw()</text><path d="M311.896,188.471 C326.747,229.524 347.779,287.665 362.732,329 " fill="none" style="stroke: #A80036; stroke-width: 1.0;"/><polygon fill="#FFFFFF" points="307.403,176.051,305.683,183.054,311.4857,187.3351,313.2057,180.3322,307.403,176.051" style="stroke: #A80036; stroke-width: 1.0;"/><text fill="#000000" font-family="sans-serif" font-size="13" lengthAdjust="spacingAndGlyphs" textLength="20" x="287.9666" y="197.2296">0..*</text><text fill="#000000" font-family="sans-serif" font-size="13" lengthAdjust="spacingAndGlyphs" textLength="7" x="352.6709" y="318.1285">1</text><path d="M271.056,187.914 C258.249,212.966 241.051,243.306 222,268 C201.098,295.093 173.638,321.788 150.683,342.262 " fill="none" style="stroke: #A80036; stroke-width: 1.0;"/><polygon fill="#A80036" points="276.978,176.089,270.7147,179.6627,271.6046,186.8187,277.8679,183.245,276.978,176.089" style="stroke: #A80036; stroke-width: 1.0;"/><text fill="#000000" font-family="sans-serif" font-size="13" lengthAdjust="spacingAndGlyphs" textLength="7" x="266.579" y="197.2739">1</text><text fill="#000000" font-family="sans-serif" font-size="13" lengthAdjust="spacingAndGlyphs" textLength="7" x="151.0187" y="331.5815">1</text><path d="M337.564,443.088 C318.221,470.515 295.875,502.199 278.22,527.233 " fill="none" style="stroke: #A80036; stroke-width: 1.0;"/><polygon fill="#A80036" points="345.09,432.417,338.3629,435.0145,338.1733,442.2231,344.9003,439.6256,345.09,432.417" style="stroke: #A80036; stroke-width: 1.0;"/><text fill="#000000" font-family="sans-serif" font-size="13" lengthAdjust="spacingAndGlyphs" textLength="7" x="332.7943" y="453.964">1</text><text fill="#000000" font-family="sans-serif" font-size="13" lengthAdjust="spacingAndGlyphs" textLength="7" x="275.4646" y="516.6362">1</text><path d="M429.306,442.688 C441.927,458.674 455.708,476.13 468.935,492.885 " fill="none" style="stroke: #A80036; stroke-width: 1.0;"/><polygon fill="#A80036" points="421.197,432.417,421.7746,439.6049,428.6317,441.8364,428.0542,434.6484,421.197,432.417" style="stroke: #A80036; stroke-width: 1.0;"/><text fill="#000000" font-family="sans-serif" font-size="13" lengthAdjust="spacingAndGlyphs" textLength="7" x="419.1282" y="453.964">1</text><text fill="#000000" font-family="sans-serif" font-size="13" lengthAdjust="spacingAndGlyphs" textLength="20" x="442.0663" y="482.061">0..*</text><path d="M250.907,521.947 C254.913,472.895 261.591,395.685 269,329 C274.915,275.762 283.278,214.338 288.671,176.081 " fill="none" style="stroke: #A80036; stroke-width: 1.0;"/><polygon fill="#A80036" points="250.479,527.195,255.1962,518.5493,250.8848,522.2115,247.2226,517.9001,250.479,527.195" style="stroke: #A80036; stroke-width: 1.0;"/><text fill="#000000" font-family="sans-serif" font-size="13" lengthAdjust="spacingAndGlyphs" textLength="27" x="270" y="385.9951">draw</text><path d="M518.244,487.958 C508.452,439.439 491.912,378.348 465,329 C432.066,268.61 376.326,211.696 337.47,176.187 " fill="none" style="stroke: #A80036; stroke-width: 1.0;"/><polygon fill="#A80036" points="519.229,492.912,521.396,483.3045,518.2534,488.0081,513.5497,484.8655,519.229,492.912" style="stroke: #A80036; stroke-width: 1.0;"/><text fill="#000000" font-family="sans-serif" font-size="13" lengthAdjust="spacingAndGlyphs" textLength="27" x="505" y="385.9951">draw</text></g></svg>