<?xml version="1.0" encoding="UTF-8" standalone="yes"?><svg xmlns="http://www.w3.org/2000/svg" xmlns:xlink="http://www.w3.org/1999/xlink" height="299px" style="width:1269px;height:299px;" version="1.1" viewBox="0 0 1269 299" width="1269px"><defs><filter height="300%" id="f1" width="300%" x="-1" y="-1"><feGaussianBlur result="blurOut" stdDeviation="2.0"/><feColorMatrix in="blurOut" result="blurOut2" type="matrix" values="0 0 0 0 0 0 0 0 0 0 0 0 0 0 0 0 0 0 .4 0"/><feOffset dx="4.0" dy="4.0" in="blurOut2" result="blurOut3"/><feBlend in="SourceGraphic" in2="blurOut3" mode="normal"/></filter></defs><g><ellipse cx="794" cy="64" fill="#FEFECE" filter="url(#f1)" rx="8" ry="8" style="stroke: #A80036; stroke-width: 2.0;"/><path d="M794,72 L794,99 M781,80 L807,80 M794,99 L781,114 M794,99 L807,114 " fill="#FEFECE" filter="url(#f1)" style="stroke: #A80036; stroke-width: 2.0;"/><text fill="#000000" font-family="sans-serif" font-size="14" lengthAdjust="spacingAndGlyphs" textLength="29" x="779.5" y="135.5332">User</text><ellipse cx="1194.0005" cy="96.6001" fill="#FEFECE" filter="url(#f1)" rx="68.5005" ry="16.1001" style="stroke: #A80036; stroke-width: 1.5;"/><text fill="#000000" font-family="sans-serif" font-size="14" lengthAdjust="spacingAndGlyphs" textLength="97" x="1145.5005" y="101.9048">Control camera</text><ellipse cx="966.8762" cy="96.4752" fill="#FEFECE" filter="url(#f1)" rx="122.8762" ry="26.9752" style="stroke: #A80036; stroke-width: 1.5;"/><text fill="#000000" font-family="sans-serif" font-size="14" lengthAdjust="spacingAndGlyphs" textLength="223" x="855.3762" y="101.7799">Increase/Decrease height of terrain</text><ellipse cx="623.2401" cy="96.4517" fill="#FEFECE" filter="url(#f1)" rx="56.7401" ry="15.4517" style="stroke: #A80036; stroke-width: 1.5;"/><text fill="#000000" font-family="sans-serif" font-size="14" lengthAdjust="spacingAndGlyphs" textLength="76" x="585.2401" y="101.7564">Edit Objects</text><ellipse cx="77.8989" cy="244.7798" fill="#FEFECE" filter="url(#f1)" rx="71.8989" ry="16.7798" style="stroke: #A80036; stroke-width: 1.5;"/><text fill="#000000" font-family="sans-serif" font-size="14" lengthAdjust="spacingAndGlyphs" textLength="106" x="24.8989" y="250.0845">Place new object</text><ellipse cx="242.9472" cy="244.9517" fill="#FEFECE" filter="url(#f1)" rx="57.4472" ry="15.4517" style="stroke: #A80036; stroke-width: 1.5;"/><text fill="#000000" font-family="sans-serif" font-size="14" lengthAdjust="spacingAndGlyphs" textLength="77" x="204.4472" y="250.2564">Scale object</text><ellipse cx="405.8726" cy="244.9745" fill="#FEFECE" filter="url(#f1)" rx="70.3726" ry="16.4745" style="stroke: #A80036; stroke-width: 1.5;"/><text fill="#000000" font-family="sans-serif" font-size="14" lengthAdjust="spacingAndGlyphs" textLength="102" x="354.8726" y="250.2792">Translate object</text><ellipse cx="622.847" cy="245.1694" fill="#FEFECE" filter="url(#f1)" rx="111.347" ry="24.6694" style="stroke: #A80036; stroke-width: 1.5;"/><text fill="#000000" font-family="sans-serif" font-size="14" lengthAdjust="spacingAndGlyphs" textLength="198" x="523.847" y="250.4741">Rotate object around the Y axis</text><polygon fill="#FBFB77" filter="url(#f1)" points="769.5,199,769.5,290.7578,922.5,290.7578,922.5,209,912.5,199,769.5,199" style="stroke: #A80036; stroke-width: 1.0;"/><polygon fill="#FBFB77" points="769.5,199,769.5,290.7578,922.5,290.7578,922.5,209,912.5,199,781.083,199,643.58,111.02,773.083,199,769.5,199" style="stroke: #A80036; stroke-width: 1.0;"/><line style="stroke: #A80036; stroke-width: 1.0;" x1="912.5" x2="912.5" y1="199" y2="209"/><line style="stroke: #A80036; stroke-width: 1.0;" x1="922.5" x2="912.5" y1="209" y2="209"/><text fill="#000000" font-family="sans-serif" font-size="13" lengthAdjust="spacingAndGlyphs" textLength="42" x="775.5" y="217.4951">Object:</text><text fill="#000000" font-family="sans-serif" font-size="13" lengthAdjust="spacingAndGlyphs" textLength="87" x="807.5" y="233.8467">Solid primitives</text><text fill="#000000" font-family="sans-serif" font-size="13" lengthAdjust="spacingAndGlyphs" textLength="79" x="807.5" y="250.1982">Plane shapes</text><text fill="#000000" font-family="sans-serif" font-size="13" lengthAdjust="spacingAndGlyphs" textLength="100" x="807.5" y="266.5498">Character merker</text><text fill="#000000" font-family="sans-serif" font-size="13" lengthAdjust="spacingAndGlyphs" textLength="77" x="807.5" y="282.9014">Text billboard</text><polygon fill="#FBFB77" filter="url(#f1)" points="958,232,958,258.3516,1104,258.3516,1104,242,1094,232,958,232" style="stroke: #A80036; stroke-width: 1.0;"/><line style="stroke: #A80036; stroke-width: 1.0;" x1="1094" x2="1094" y1="232" y2="242"/><line style="stroke: #A80036; stroke-width: 1.0;" x1="1104" x2="1094" y1="242" y2="242"/><text fill="#000000" font-family="sans-serif" font-size="13" lengthAdjust="spacingAndGlyphs" textLength="125" x="964" y="250.4951">Share with all in room</text><path d="M809.039,61.055 C817.044,46.844 828.406,31.971 843.5,24 C892.037,-1.632 1038.15,7.49 1090.5,24 C1123.45,34.393 1155.03,59.44 1174.46,77.176 " fill="none" style="stroke: #A80036; stroke-width: 1.0;"/><polygon fill="#A80036" points="1178.18,80.619,1174.2962,71.5682,1174.5121,77.221,1168.8594,77.4368,1178.18,80.619" style="stroke: #A80036; stroke-width: 1.0;"/><path d="M809.205,96.5 C819.003,96.5 828.801,96.5 838.599,96.5 " fill="none" style="stroke: #A80036; stroke-width: 1.0;"/><polygon fill="#A80036" points="843.723,96.5,834.723,92.5,838.723,96.5,834.723,100.5,843.723,96.5" style="stroke: #A80036; stroke-width: 1.0;"/><path d="M684.807,96.5 C716.148,96.5 747.489,96.5 778.83,96.5 " fill="none" style="stroke: #A80036; stroke-width: 1.0;"/><polygon fill="#A80036" points="679.777,96.5,688.777,100.5,684.777,96.5,688.777,92.5,679.777,96.5" style="stroke: #A80036; stroke-width: 1.0;"/><path d="M569.032,105.162 C482.601,118.397 308.567,149.028 168,199 C145.45,207.0166 121.26,219.3406 103.6437,229.0658 " fill="none" style="stroke: #A80036; stroke-width: 1.0; stroke-dasharray: 7.0,7.0;"/><polygon fill="#A80036" points="574.092,104.392,564.5923,101.7928,569.149,105.1449,565.7969,109.7016,574.092,104.392" style="stroke: #A80036; stroke-width: 1.0;"/><path d="M578.458,109.01 C518.001,125.369 407.27,157.968 318,199 C298.546,207.9418 277.77,220.6848 263.029,230.3292 " fill="none" style="stroke: #A80036; stroke-width: 1.0; stroke-dasharray: 7.0,7.0;"/><polygon fill="#A80036" points="583.436,107.669,573.7051,106.149,578.6083,108.9702,575.7871,113.8733,583.436,107.669" style="stroke: #A80036; stroke-width: 1.0;"/><path d="M598.753,113.87 C556.201,142.597 468.735,201.6469 427.901,229.2145 " fill="none" style="stroke: #A80036; stroke-width: 1.0; stroke-dasharray: 7.0,7.0;"/><polygon fill="#A80036" points="602.974,111.02,593.2764,112.7395,598.8296,113.8172,597.7519,119.3704,602.974,111.02" style="stroke: #A80036; stroke-width: 1.0;"/><path d="M623,117.137 C623,143.871 623,191.6691 623,220.3453 " fill="none" style="stroke: #A80036; stroke-width: 1.0; stroke-dasharray: 7.0,7.0;"/><polygon fill="#A80036" points="623,112.083,619,121.083,623,117.083,627,121.083,623,112.083" style="stroke: #A80036; stroke-width: 1.0;"/><path d="M978.442,123.691 C992.392,155.624 1015.38,208.2498 1025.7,231.8671 " fill="none" style="stroke: #A80036; stroke-width: 1.0; stroke-dasharray: 7.0,7.0;"/><path d="M659.522,108.442 C731.182,130.035 887.773,177.863 940,199 C964.179,208.7856 990.816,222.2969 1008.99,231.9554 " fill="none" style="stroke: #A80036; stroke-width: 1.0; stroke-dasharray: 7.0,7.0;"/></g></svg>